<svg width="31" height="31" viewBox="0 0 31 31" fill="none" xmlns="http://www.w3.org/2000/svg">
<g clip-path="url(#clip0_1675_20988)">
<path d="M26.3486 21.3802C24.5364 19.8301 22.6971 18.8912 20.9071 20.4389L19.8382 21.3743C19.0562 22.0533 17.6021 25.226 11.9803 18.7589C6.35957 12.3 9.70435 11.2943 10.4876 10.6211L11.5623 9.68456C13.343 8.13334 12.671 6.18056 11.3867 4.17041L10.6117 2.95285C9.32152 0.94739 7.91664 -0.369683 6.13128 1.17919L5.1666 2.02212C4.37752 2.59695 2.17186 4.46544 1.63684 8.0151C0.992938 12.2742 3.02416 17.1515 7.67782 22.5029C12.3256 27.8567 16.8763 30.5458 21.1869 30.499C24.7693 30.4604 26.9328 28.538 27.6095 27.8391L28.5777 26.995C30.3584 25.4473 29.2521 23.8715 27.4386 22.3179L26.3486 21.3802Z" fill="#6A9631"/>
</g>
<defs>
<clipPath id="clip0_1675_20988">
<rect width="30" height="30" fill="white" transform="translate(0.5 0.5)"/>
</clipPath>
</defs>
</svg>
